<svg width="16" height="16" viewBox="0 0 16 16" fill="none" xmlns="http://www.w3.org/2000/svg">
<path d="M13.5975 10.0848C12.7811 10.0848 11.9796 9.95714 11.2201 9.70614C10.8479 9.57919 10.3903 9.69565 10.1632 9.92895L8.66399 11.0607C6.92534 10.1326 5.85437 9.06197 4.93895 7.33638L6.03739 5.87624C6.32277 5.59124 6.42513 5.17492 6.30249 4.78429C6.05041 4.02075 5.92235 3.21961 5.92235 2.40294C5.92239 1.81297 5.44242 1.33301 4.85249 1.33301H2.40388C1.81395 1.33301 1.33398 1.81297 1.33398 2.4029C1.33398 9.16506 6.83531 14.6663 13.5975 14.6663C14.1874 14.6663 14.6674 14.1864 14.6674 13.5964V11.1547C14.6673 10.5648 14.1874 10.0848 13.5975 10.0848Z" fill="#BEA558"/>
</svg>
