<svg width="95" height="88" viewBox="0 0 95 88" fill="none" xmlns="http://www.w3.org/2000/svg">
<path d="M12.4023 42.2353C9.00951 27.2353 16.4972 6.05882 37.6732 0L12.4023 42.2353Z" fill="#002D72"/>
<path d="M75.3454 52.7059H19.3633L47.3836 5.94118L59.5511 26.1176H72.5375L56.9187 0C64.9329 1.17647 87.8639 14.2353 82.3066 42.7647L75.5794 31.2353H43.1718L36.5031 42.3529L69.2617 42.4706L75.3454 52.7059Z" fill="#002D72"/>
<path d="M26.5 63.8242C43.9908 76.1183 60.955 69.3536 68.5012 63.8242H26.5Z" fill="#002D72"/>
<path fill-rule="evenodd" clip-rule="evenodd" d="M2.16441 87.8234H0L2.86638 78.5293H5.61576L8.48214 87.8234H6.20074L5.55726 85.4116H2.74938L2.16441 87.8234ZM5.20628 83.8234H3.10037L4.15332 80.0587L5.20628 83.8234Z" fill="#002D72"/>
<path d="M11.4658 87.8234H9.65234L10.0618 78.5293H12.8697L14.6246 84.9411L16.4966 78.5293H19.2459L19.7139 87.8234H17.725L17.491 80.5293L15.2681 87.6469H13.6887L11.8168 80.5293L11.4658 87.8234Z" fill="#002D72"/>
<path d="M27.0843 80.2354V78.4707H21.3516V87.8236H27.2013V86.1178H23.4575V83.8825H26.8503V82.2354H23.4575V80.2354H27.0843Z" fill="#002D72"/>
<path d="M34.4554 86.1168V87.8227H28.7227V78.4697H30.8286V86.1168H34.4554Z" fill="#002D72"/>
<path d="M35.7422 78.4707H37.9066V87.8236H35.7422V78.4707Z" fill="#002D72"/>
<path d="M55.8084 82.5288H59.2597V87.3523C57.6803 87.8621 54.0652 88.4111 52.24 86.5288C50.4149 84.6464 51.0896 81.9013 51.6551 80.7641C52.3181 79.5679 54.6852 77.5052 58.8503 78.8229L58.4408 80.4699C57.3293 80.0385 54.6969 79.6464 53.5855 81.4699C52.4155 84.4699 54.112 86.0582 55.5744 86.0582H57.2708V84.117H55.8084V82.5288Z" fill="#002D72"/>
<path fill-rule="evenodd" clip-rule="evenodd" d="M62.9439 87.7643H60.8965V78.5879C62.9439 78.3526 66.9802 77.9408 67.5067 80.4702C67.7407 82.529 66.5318 83.2546 65.9273 83.4114C66.7968 83.8777 67.0344 84.7483 67.8356 87.6832L67.8577 87.7643H65.6933C65.4983 86.5094 65.0498 84.1761 63.9384 84.1173H62.9439V87.7643ZM62.9439 82.5879V80.0585C63.8214 79.9996 65.4593 79.9408 65.4593 81.4702C65.3657 82.7408 63.7433 82.7447 62.9439 82.5879Z" fill="#002D72"/>
<path fill-rule="evenodd" clip-rule="evenodd" d="M68.6761 84.4111C68.4047 82.7053 68.7229 79.67 71.484 78.5876C74.3504 77.7053 76.1053 79.0582 76.9243 80.47C77.5677 81.5793 78.0123 84.3406 76.5148 86.4111C75.0172 88.4817 71.835 88.0582 70.665 87.4111C69.6121 86.8288 68.8633 85.5876 68.6761 84.4111ZM73.0634 79.9406C71.4723 80.0817 70.9186 81.6464 70.8405 82.4111C70.6545 84.2347 71.367 86.5876 73.3559 86.2935C74.9938 86.0513 75.3059 83.8817 75.2863 82.8229C75.2083 81.8033 74.6429 80.0582 73.0634 79.9406Z" fill="#002D72"/>
<path d="M81.0203 78.4707H78.9144C78.9144 80.1178 78.2709 86.5978 80.6693 87.5295C82.4243 88.2113 84.1792 88.1178 85.1736 87.2354C85.6188 86.7724 86.0319 86.3012 86.2266 85.4707C86.3645 84.8825 86.4021 79.6421 86.4021 78.4707H84.3547C84.3547 81.0001 84.5385 84.6472 84.0037 85.5884C83.5357 86.4119 82.0733 86.6525 81.3128 85.4707C80.745 84.5884 80.9033 80.4707 81.0203 78.4707Z" fill="#002D72"/>
<path fill-rule="evenodd" clip-rule="evenodd" d="M90.3189 87.7638H88.2715V78.4697H92.1908C94.4722 78.4697 95.2327 80.5338 94.8232 82.2933C94.1797 85.058 90.3189 84.3521 90.3189 84.3521V87.7638ZM90.3189 82.8815V80.058C90.6699 80.058 92.0153 79.8815 92.4833 80.4697C93.0449 81.1756 92.8343 82.1756 92.4833 82.4697C91.7813 83.058 91.0209 82.8815 90.3189 82.8815Z" fill="#002D72"/>
<path fill-rule="evenodd" clip-rule="evenodd" d="M41.182 87.8234H39.0176L41.884 78.5293H44.6333L47.4997 87.8234H45.2183L44.5748 85.4116H41.767L41.182 87.8234ZM43.1709 80.0587L44.2239 83.8234H42.1179L43.1709 80.0587Z" fill="#002D72"/>
</svg>
