<svg width="16" height="16" viewBox="0 0 16 16" fill="none" xmlns="http://www.w3.org/2000/svg">
<path fill-rule="evenodd" clip-rule="evenodd" d="M1.75447 2.6945C1.5379 2.73523 1.23264 2.89962 1.05987 3.06858C0.558545 3.55879 0.538781 4.34936 1.01578 4.83092C1.14514 4.96152 7.13864 8.85458 7.41923 8.99026C7.7838 9.16656 8.19427 9.17039 8.5636 9.00095C8.83007 8.87872 14.8109 4.99811 14.9619 4.84945C15.4589 4.36036 15.4481 3.56765 14.9377 3.06858C14.7571 2.892 14.4569 2.73496 14.2177 2.69194C14.0238 2.65704 1.94037 2.65955 1.75447 2.6945ZM0.666016 8.89848C0.666016 11.1488 0.67564 12.1814 0.697581 12.2838C0.774804 12.6441 1.04093 12.9887 1.37572 13.1618C1.72895 13.3444 1.29658 13.3332 7.98772 13.3336C11.913 13.3339 14.118 13.3242 14.2177 13.3063C14.4552 13.2636 14.7692 13.1006 14.9419 12.9304C15.1095 12.7653 15.2519 12.508 15.3 12.2838C15.3363 12.1143 15.3461 5.65417 15.3101 5.66973C15.2982 5.67481 13.913 6.5695 12.2319 7.65791C10.5507 8.74632 9.08299 9.68185 8.97037 9.73687C8.65374 9.89156 8.38529 9.9506 7.99878 9.9506C7.61226 9.9506 7.34381 9.89156 7.02718 9.73687C6.91456 9.68185 5.44689 8.74632 3.76568 7.65791C2.0845 6.5695 0.699299 5.67481 0.687498 5.66973C0.675697 5.66462 0.666016 7.11758 0.666016 8.89848Z" fill="#BEA558"/>
</svg>
