<svg width="24" height="24" viewBox="0 0 24 24" fill="none" xmlns="http://www.w3.org/2000/svg">
<path d="M22.1476 3.1448C21.7876 2.83952 21.2221 2.79584 20.6375 3.03056H20.6365C20.0216 3.27728 3.23123 10.4792 2.54771 10.7734C2.42339 10.8166 1.33763 11.2218 1.44947 12.1242C1.54931 12.9378 2.42195 13.2747 2.52851 13.3136L6.79715 14.7752C7.08035 15.7179 8.12435 19.196 8.35523 19.939C8.49923 20.4022 8.73395 21.0109 9.14531 21.1362C9.50627 21.2754 9.86531 21.1482 10.0976 20.9658L12.7074 18.5451L16.9204 21.8307L17.0207 21.8907C17.3068 22.0174 17.5808 22.0808 17.8424 22.0808C18.0445 22.0808 18.2384 22.0429 18.4237 21.967C19.0549 21.7078 19.3074 21.1064 19.3338 21.0382L22.4807 4.68128C22.6727 3.80768 22.4058 3.3632 22.1476 3.1448ZM10.5618 15.3598L9.12179 19.1998L7.68179 14.3998L18.7218 6.23984L10.5618 15.3598Z" fill="#BEA558"/>
</svg>
