<svg width="24" height="24" viewBox="0 0 24 24" fill="none" xmlns="http://www.w3.org/2000/svg">
<path d="M23.4613 17.5103C23.2219 18.7703 22.2045 19.7303 20.9476 19.9103C18.9726 20.2103 15.6808 20.5703 11.9701 20.5703C8.3192 20.5703 5.02743 20.2103 2.99252 19.9103C1.73566 19.7303 0.718205 18.7703 0.478803 17.5103C0.239402 16.1303 0 14.0903 0 11.5703C0 9.05031 0.239402 7.01031 0.478803 5.63031C0.718205 4.37031 1.73566 3.41031 2.99252 3.23031C4.96758 2.93031 8.25935 2.57031 11.9701 2.57031C15.6808 2.57031 18.9127 2.93031 20.9476 3.23031C22.2045 3.41031 23.2219 4.37031 23.4613 5.63031C23.7007 7.01031 24 9.05031 24 11.5703C23.9401 14.0903 23.7007 16.1303 23.4613 17.5103Z" fill="#002D72"/>
<path d="M9.42969 16.2863V7.71484L17.144 12.0006L9.42969 16.2863Z" fill="#F8F8F8"/>
</svg>
